<svg width="495" height="103" viewBox="0 0 495 103" fill="none" xmlns="http://www.w3.org/2000/svg">
<g filter="url(#filter0_d_13_6)">
<path d="M17.5059 74H4.07812V0.904297H17.5059V46.998L37.3789 21.8027H52.7109L35.377 43.5801L52.7109 74H37.3789L26.7832 55.0059L17.5059 67.3105V74ZM71.3145 74H57.9844V21.7051H61.207L65.6016 26.7832C67.75 24.8301 70.1751 23.3327 72.877 22.291C75.6113 21.2168 78.4596 20.6797 81.4219 20.6797C84.612 20.6797 87.623 21.2982 90.4551 22.5352C93.2871 23.7396 95.7611 25.416 97.877 27.5645C99.9928 29.6803 101.653 32.1706 102.857 35.0352C104.094 37.8672 104.713 40.8945 104.713 44.1172V74H91.3828V44.1172C91.3828 42.75 91.1224 41.4642 90.6016 40.2598C90.0807 39.0228 89.3646 37.9486 88.4531 37.0371C87.5417 36.1257 86.4837 35.4095 85.2793 34.8887C84.0749 34.3678 82.7891 34.1074 81.4219 34.1074C80.0221 34.1074 78.7038 34.3678 77.4668 34.8887C76.2298 35.4095 75.1556 36.1257 74.2441 37.0371C73.3327 37.9486 72.6165 39.0228 72.0957 40.2598C71.5749 41.4642 71.3145 42.75 71.3145 44.1172V74ZM164.771 47.3887C164.771 51.2949 164.072 54.9408 162.672 58.3262C161.272 61.679 159.368 64.5924 156.959 67.0664C154.55 69.5078 151.718 71.4447 148.463 72.877C145.24 74.2767 141.773 74.9766 138.062 74.9766C134.384 74.9766 130.917 74.2767 127.662 72.877C124.439 71.4447 121.607 69.5078 119.166 67.0664C116.757 64.5924 114.853 61.679 113.453 58.3262C112.053 54.9408 111.354 51.2949 111.354 47.3887C111.354 43.4173 112.053 39.7389 113.453 36.3535C114.853 32.9681 116.757 30.0547 119.166 27.6133C121.607 25.1393 124.439 23.2025 127.662 21.8027C130.917 20.403 134.384 19.7031 138.062 19.7031C141.773 19.7031 145.24 20.3704 148.463 21.7051C151.718 23.0072 154.55 24.8789 156.959 27.3203C159.368 29.7292 161.272 32.6426 162.672 36.0605C164.072 39.446 164.771 43.222 164.771 47.3887ZM151.344 47.3887C151.344 45.2402 150.986 43.3034 150.27 41.5781C149.586 39.8203 148.642 38.3229 147.438 37.0859C146.233 35.8164 144.817 34.8561 143.189 34.2051C141.594 33.5215 139.885 33.1797 138.062 33.1797C136.24 33.1797 134.514 33.5215 132.887 34.2051C131.292 34.8561 129.892 35.8164 128.688 37.0859C127.516 38.3229 126.588 39.8203 125.904 41.5781C125.221 43.3034 124.879 45.2402 124.879 47.3887C124.879 49.4069 125.221 51.2786 125.904 53.0039C126.588 54.7292 127.516 56.2266 128.688 57.4961C129.892 58.7656 131.292 59.7747 132.887 60.5234C134.514 61.2396 136.24 61.5977 138.062 61.5977C139.885 61.5977 141.594 61.2559 143.189 60.5723C144.817 59.8887 146.233 58.9284 147.438 57.6914C148.642 56.4544 149.586 54.957 150.27 53.1992C150.986 51.4414 151.344 49.5046 151.344 47.3887ZM238.16 55.1035C238.16 57.8379 237.639 60.4258 236.598 62.8672C235.556 65.276 234.124 67.3757 232.301 69.166C230.51 70.9564 228.395 72.3724 225.953 73.4141C223.544 74.4557 220.956 74.9766 218.189 74.9766C215.715 74.9766 213.339 74.5534 211.061 73.707C208.782 72.8281 206.715 71.5586 204.859 69.8984C203.036 71.5586 200.986 72.8281 198.707 73.707C196.461 74.5534 194.085 74.9766 191.578 74.9766C188.811 74.9766 186.223 74.4557 183.814 73.4141C181.406 72.3724 179.29 70.9564 177.467 69.166C175.676 67.3757 174.26 65.276 173.219 62.8672C172.177 60.4258 171.656 57.8379 171.656 55.1035V21.8027H184.986V55.1035C184.986 56.015 185.149 56.8776 185.475 57.6914C185.833 58.4727 186.305 59.1725 186.891 59.791C187.509 60.377 188.209 60.849 188.99 61.207C189.804 61.5326 190.667 61.6953 191.578 61.6953C192.49 61.6953 193.352 61.5326 194.166 61.207C194.98 60.849 195.696 60.377 196.314 59.791C196.933 59.1725 197.405 58.4727 197.73 57.6914C198.089 56.8776 198.268 56.015 198.268 55.1035V21.8027H211.549V55.1035C211.549 56.015 211.728 56.8776 212.086 57.6914C212.444 58.4727 212.916 59.1725 213.502 59.791C214.12 60.377 214.82 60.849 215.602 61.207C216.415 61.5326 217.278 61.6953 218.189 61.6953C219.101 61.6953 219.964 61.5326 220.777 61.207C221.591 60.849 222.291 60.377 222.877 59.791C223.495 59.1725 223.984 58.4727 224.342 57.6914C224.7 56.8776 224.879 56.015 224.879 55.1035V21.8027H238.16V55.1035ZM261.256 74H247.828V0.904297H261.256V74ZM292.262 61.207C292.783 61.3698 293.303 61.4837 293.824 61.5488C294.345 61.5814 294.866 61.5977 295.387 61.5977C296.689 61.5977 297.942 61.4186 299.146 61.0605C300.351 60.7025 301.474 60.1979 302.516 59.5469C303.59 58.8633 304.534 58.0495 305.348 57.1055C306.194 56.1289 306.878 55.0547 307.398 53.8828L317.164 63.6973C315.927 65.4551 314.495 67.0339 312.867 68.4336C311.272 69.8333 309.531 71.0215 307.643 71.998C305.787 72.9746 303.818 73.707 301.734 74.1953C299.684 74.7161 297.568 74.9766 295.387 74.9766C291.708 74.9766 288.242 74.293 284.986 72.9258C281.764 71.5586 278.932 69.6543 276.49 67.2129C274.081 64.7715 272.177 61.8743 270.777 58.5215C269.378 55.1361 268.678 51.4251 268.678 47.3887C268.678 43.2546 269.378 39.4785 270.777 36.0605C272.177 32.6426 274.081 29.7292 276.49 27.3203C278.932 24.9115 281.764 23.0397 284.986 21.7051C288.242 20.3704 291.708 19.7031 295.387 19.7031C297.568 19.7031 299.7 19.9635 301.783 20.4844C303.867 21.0052 305.836 21.7539 307.691 22.7305C309.579 23.707 311.337 24.9115 312.965 26.3438C314.592 27.7435 316.025 29.3223 317.262 31.0801L292.262 61.207ZM299.098 33.7168C298.479 33.4889 297.861 33.3424 297.242 33.2773C296.656 33.2122 296.038 33.1797 295.387 33.1797C293.564 33.1797 291.839 33.5215 290.211 34.2051C288.616 34.8561 287.216 35.8001 286.012 37.0371C284.84 38.2741 283.912 39.7715 283.229 41.5293C282.545 43.2546 282.203 45.2077 282.203 47.3887C282.203 47.877 282.219 48.4303 282.252 49.0488C282.317 49.6673 282.398 50.3021 282.496 50.9531C282.626 51.5716 282.773 52.1738 282.936 52.7598C283.098 53.3457 283.31 53.8665 283.57 54.3223L299.098 33.7168ZM374.146 74H370.924L365.748 66.8223C364.479 67.9616 363.128 69.0358 361.695 70.0449C360.296 71.0215 358.814 71.8841 357.252 72.6328C355.689 73.349 354.078 73.9186 352.418 74.3418C350.79 74.765 349.13 74.9766 347.438 74.9766C343.759 74.9766 340.292 74.293 337.037 72.9258C333.814 71.526 330.982 69.6055 328.541 67.1641C326.132 64.6901 324.228 61.7767 322.828 58.4238C321.428 55.0384 320.729 51.36 320.729 47.3887C320.729 43.4499 321.428 39.7878 322.828 36.4023C324.228 33.0169 326.132 30.0872 328.541 27.6133C330.982 25.1393 333.814 23.2025 337.037 21.8027C340.292 20.403 343.759 19.7031 347.438 19.7031C348.609 19.7031 349.814 19.8008 351.051 19.9961C352.32 20.1914 353.541 20.5169 354.713 20.9727C355.917 21.3958 357.04 21.9655 358.082 22.6816C359.124 23.3978 360.003 24.2767 360.719 25.3184V0.904297H374.146V74ZM360.719 47.3887C360.719 45.5658 360.361 43.8079 359.645 42.1152C358.961 40.39 358.017 38.8763 356.812 37.5742C355.608 36.2396 354.192 35.1816 352.564 34.4004C350.969 33.5866 349.26 33.1797 347.438 33.1797C345.615 33.1797 343.889 33.5052 342.262 34.1562C340.667 34.8073 339.267 35.7513 338.062 36.9883C336.891 38.1927 335.963 39.6738 335.279 41.4316C334.596 43.1895 334.254 45.1751 334.254 47.3887C334.254 49.3092 334.596 51.1322 335.279 52.8574C335.963 54.5827 336.891 56.0964 338.062 57.3984C339.267 58.7005 340.667 59.7259 342.262 60.4746C343.889 61.2233 345.615 61.5977 347.438 61.5977C349.26 61.5977 350.969 61.207 352.564 60.4258C354.192 59.612 355.608 58.554 356.812 57.252C358.017 55.9173 358.961 54.4036 359.645 52.7109C360.361 50.9857 360.719 49.2116 360.719 47.3887ZM421.559 47.3887C421.559 45.5658 421.201 43.8079 420.484 42.1152C419.801 40.39 418.857 38.8763 417.652 37.5742C416.448 36.2396 415.032 35.1816 413.404 34.4004C411.809 33.5866 410.1 33.1797 408.277 33.1797C406.454 33.1797 404.729 33.4889 403.102 34.1074C401.507 34.7259 400.107 35.6374 398.902 36.8418C397.73 38.0462 396.803 39.5436 396.119 41.334C395.436 43.0918 395.094 45.11 395.094 47.3887C395.094 49.5697 395.436 51.5391 396.119 53.2969C396.803 55.0221 397.73 56.5033 398.902 57.7402C400.107 58.9772 401.507 59.9375 403.102 60.6211C404.729 61.2721 406.454 61.5977 408.277 61.5977C410.1 61.5977 411.809 61.207 413.404 60.4258C415.032 59.612 416.448 58.554 417.652 57.252C418.857 55.9173 419.801 54.4036 420.484 52.7109C421.201 50.9857 421.559 49.2116 421.559 47.3887ZM434.986 67.4082C434.986 71.0866 434.286 74.5371 432.887 77.7598C431.487 80.9824 429.566 83.7982 427.125 86.207C424.716 88.6159 421.884 90.5202 418.629 91.9199C415.406 93.3197 411.956 94.0195 408.277 94.0195L401.588 93.9219V80.5918L408.18 80.6895C410.263 80.6895 412.037 80.4128 413.502 79.8594C414.967 79.3385 416.204 78.6061 417.213 77.6621C418.222 76.7507 419.02 75.6927 419.605 74.4883C420.224 73.2839 420.712 72.0143 421.07 70.6797C420.549 71.526 419.801 72.2259 418.824 72.7793C417.848 73.3001 416.757 73.7233 415.553 74.0488C414.381 74.4069 413.144 74.651 411.842 74.7812C410.572 74.9115 409.384 74.9766 408.277 74.9766C404.599 74.9766 401.132 74.3418 397.877 73.0723C394.654 71.8027 391.822 69.9961 389.381 67.6523C386.972 65.276 385.068 62.3789 383.668 58.9609C382.268 55.543 381.568 51.6855 381.568 47.3887C381.568 43.4499 382.268 39.7878 383.668 36.4023C385.068 33.0169 386.972 30.0872 389.381 27.6133C391.822 25.1393 394.654 23.2025 397.877 21.8027C401.132 20.403 404.599 19.7031 408.277 19.7031C409.97 19.7031 411.646 19.9147 413.307 20.3379C414.967 20.7611 416.578 21.347 418.141 22.0957C419.703 22.8444 421.184 23.7233 422.584 24.7324C424.016 25.7415 425.351 26.832 426.588 28.0039L431.764 21.8027H434.986V67.4082ZM465.992 61.207C466.513 61.3698 467.034 61.4837 467.555 61.5488C468.076 61.5814 468.596 61.5977 469.117 61.5977C470.419 61.5977 471.673 61.4186 472.877 61.0605C474.081 60.7025 475.204 60.1979 476.246 59.5469C477.32 58.8633 478.264 58.0495 479.078 57.1055C479.924 56.1289 480.608 55.0547 481.129 53.8828L490.895 63.6973C489.658 65.4551 488.225 67.0339 486.598 68.4336C485.003 69.8333 483.261 71.0215 481.373 71.998C479.518 72.9746 477.548 73.707 475.465 74.1953C473.414 74.7161 471.298 74.9766 469.117 74.9766C465.439 74.9766 461.972 74.293 458.717 72.9258C455.494 71.5586 452.662 69.6543 450.221 67.2129C447.812 64.7715 445.908 61.8743 444.508 58.5215C443.108 55.1361 442.408 51.4251 442.408 47.3887C442.408 43.2546 443.108 39.4785 444.508 36.0605C445.908 32.6426 447.812 29.7292 450.221 27.3203C452.662 24.9115 455.494 23.0397 458.717 21.7051C461.972 20.3704 465.439 19.7031 469.117 19.7031C471.298 19.7031 473.43 19.9635 475.514 20.4844C477.597 21.0052 479.566 21.7539 481.422 22.7305C483.31 23.707 485.068 24.9115 486.695 26.3438C488.323 27.7435 489.755 29.3223 490.992 31.0801L465.992 61.207ZM472.828 33.7168C472.21 33.4889 471.591 33.3424 470.973 33.2773C470.387 33.2122 469.768 33.1797 469.117 33.1797C467.294 33.1797 465.569 33.5215 463.941 34.2051C462.346 34.8561 460.947 35.8001 459.742 37.0371C458.57 38.2741 457.643 39.7715 456.959 41.5293C456.275 43.2546 455.934 45.2077 455.934 47.3887C455.934 47.877 455.95 48.4303 455.982 49.0488C456.048 49.6673 456.129 50.3021 456.227 50.9531C456.357 51.5716 456.503 52.1738 456.666 52.7598C456.829 53.3457 457.04 53.8665 457.301 54.3223L472.828 33.7168Z" fill="#035E65"/>
</g>
<defs>
<filter id="filter0_d_13_6" x="0.078125" y="0.904297" width="494.914" height="101.115" filterUnits="userSpaceOnUse" color-interpolation-filters="sRGB">
<feFlood flood-opacity="0" result="BackgroundImageFix"/>
<feColorMatrix in="SourceAlpha" type="matrix" values="0 0 0 0 0 0 0 0 0 0 0 0 0 0 0 0 0 0 127 0" result="hardAlpha"/>
<feOffset dy="4"/>
<feGaussianBlur stdDeviation="2"/>
<feComposite in2="hardAlpha" operator="out"/>
<feColorMatrix type="matrix" values="0 0 0 0 0 0 0 0 0 0 0 0 0 0 0 0 0 0 0.25 0"/>
<feBlend mode="normal" in2="BackgroundImageFix" result="effect1_dropShadow_13_6"/>
<feBlend mode="normal" in="SourceGraphic" in2="effect1_dropShadow_13_6" result="shape"/>
</filter>
</defs>
</svg>
